/* XPM */
static char *_ea72614afae4e39ad3b55bf9833ecbcqOZORQOUmqKEi3R2[] = {
/* columns rows colors chars-per-pixel */
"32 32 97 2 ",
"   c #B19C59",
".  c #AF9A58",
"X  c #A99355",
"o  c #AE9958",
"O  c #B59F5B",
"+  c #C0AD62",
"@  c #C7B667",
"#  c #BEAC61",
"$  c #A38F52",
"%  c #AE9A58",
"&  c #C2AD63",
"*  c #BDA760",
"=  c black",
"-  c #9C874E",
";  c #B49E5B",
":  c #A89354",
">  c #AA9556",
",  c #A89254",
"<  c #B09B59",
"1  c #AC9757",
"2  c #B09A59",
"3  c #B49F5B",
"4  c #BFAC62",
"5  c #C3B265",
"6  c #BCA960",
"7  c #C1AD62",
"8  c #C0AA61",
"9  c #A28E51",
"0  c #A79254",
"q  c #B29C5A",
"w  c #B39D5A",
"e  c #B9A35E",
"r  c #B6A15C",
"t  c #BEAB61",
"y  c #C4B265",
"u  c #B7A25D",
"i  c #B59E5B",
"p  c #C2B064",
"a  c #BDAA61",
"s  c #BAA45E",
"d  c #AF9958",
"f  c #BBA85F",
"g  c #AB9656",
"h  c #B9A55E",
"j  c #C1AE63",
"k  c #505050",
"l  c #A48F52",
"z  c #BDA960",
"x  c #9E8A4F",
"c  c #202020",
"v  c #C7B566",
"b  c #B5A05B",
"n  c #C0AB62",
"m  c #B8A25D",
"M  c #BBA65F",
"N  c #A08D51",
"B  c #3E3E3E",
"V  c #BBA75F",
"C  c #B9A45E",
"Z  c #B5A05C",
"A  c #C3B064",
"S  c #BAA55E",
"D  c #C6B466",
"F  c #BCA75F",
"G  c #A99455",
"H  c #B7A35D",
"J  c #BAA75F",
"K  c #B29D5A",
"L  c #AA9555",
"P  c #9E8B4F",
"I  c #A59053",
"U  c #BBA55F",
"Y  c #BAA65E",
"T  c #BDA860",
"R  c #BEAA61",
"E  c #B5A15C",
"W  c #AF9B58",
"Q  c #B7A15C",
"!  c #BFA961",
"~  c #B49D5A",
"^  c #C5B365",
"/  c #B7A05C",
"(  c #B6A25C",
")  c #B69F5C",
"_  c #B39E5A",
"`  c #A69153",
"'  c #AD9757",
"]  c #C2AF63",
"[  c #AA9756",
"{  c #B39E5B",
"}  c #9B864D",
"|  c #BEA960",
" . c #B19D5A",
".. c #AA9656",
"X. c #C5B165",
"o. c #BBA960",
"O. c #BCA55F",
/* pixels */
"  . X o O + @ @ # $ % @ & * o X = = - $ ; o : X > . o , , , .   ",
"  < 1 2 3 4 @ 5 6 $ % 5 7 8 o X = = 9 0 ; o X X > ; q , X > .   ",
"  w e r q t y u   > . i = = = = = = = = q o , , o p a , o       ",
"  ; s i d r 6 f u w q q = = = = = = = = d o g o q a h g <   . d ",
"  ; s ; , , 1 j = = = = k k k k k k k k = = = = O q         g , ",
"l :   o , ; a y = = = = k k k k k k k k = = = =   z t t r   g , ",
"x 9 g X 0 h = = k k k k c c c c k k k k k k k k = = 5 v z q 1 X ",
"o < e . x   = = k k k k c c c c k k k k k k k k = = b n * m w < ",
"  w M   N . = = B B B B c c c c k k c c k k c c = = . s s e w < ",
"  q w   o   = = B B B B c c c c k k c c k k c c = = X g q i o X ",
"V C   ; V u ; g = = = = = = B B B B = = = = = = Z < o 1 q ;   . ",
"@ A q S @ n m 1 = = = = = = B B B B = = = = = = D S ;   ; O O O ",
"F r G   F Z = = k k k k k k k k k k k k k k k k = = ; 3 q . . . ",
"  1 $ G     = = k k k k k k k k k k k k k k k k = = w O < X X , ",
"    q q   o = = B B B B B B B B B B B B B B B B = = > g H j   , ",
"  q O 3   1 = = B B B B B B B B B B B B B B B B = = , , J @ K X ",
"L g q V @ r > ; = = c c = = c c = = = = c c = = P I , , ; U ; q ",
"1 o . h @ u g q = = c c = = c c = = = = c c = = 9 0 X g ; m ; w ",
"* e X r @ Y . g X X = = o X = = X , = = = = > q ; > d e i q m e ",
"7 T o ; R E o > X g = = > X = = G L = = = = X q ; . w R r   ; i ",
"@ 5 i q , X X X g   = = X X = = G W = = = = = = q ; F @ z   g , ",
"H u ; ; ; o X 1 o 1 = = 0 X = = w Z = = = = = = z e S R r   w w ",
", > q Q ! w = = = = G $ 0 > = = = = q   = = . R A M m ; ~ q O Q ",
", 0 $ K ^ C = = = = K x G < = = = = / ; = = R ( w ; ; i ) m L l ",
", I x % 5 S w o q 5 H x g Z = = = = e )   a 5 K >   3 C u r l x ",
", , I X o r e w Z y f I h 5 = = = = ; q   a 5 _ L w F y E 0 0 ` ",
"1 ' . ' , q Q S z ] S , r a = = ] t < q S 6 6 [ 0 3 M 4 { I l $ ",
"  ; s ; , , 1 j D ! 3 , , X = = e r G 3 @ H 0 N 9 m e   1 , N } ",
"  3 & | ; o > E H ; 1 9 I X 1 1 = = .    ...l x P . w   1 , l $ ",
"  r @ X.* q , X X , l } l X e * = = ; 1 } P $ x x I 1   1 , , , ",
"  . ..o 3 o , , X . 0 } G w r m e m w Z o.K X L o ) F j b , ; m ",
"  g - l   1 , , g   X } g O O O s m q S @ H X . ; O.& @ H , m * "
};
