/* XPM */
static char *_163b07ba8af4e94e879a5346f6fadeepBAYCBk08JS0LcWS[] = {
/* columns rows colors chars-per-pixel */
"32 32 101 2 ",
"   c #B19C59",
".  c #AF9A58",
"X  c #A99355",
"o  c #AE9958",
"O  c #B59F5B",
"+  c #C0AD62",
"@  c #C7B667",
"#  c #BEAC61",
"$  c #A38F52",
"%  c #AE9A58",
"&  c #C2AD63",
"*  c #BDA760",
"=  c black",
"-  c #9C874E",
";  c #B49E5B",
":  c #A89354",
">  c #AA9556",
",  c #A89254",
"<  c #B09B59",
"1  c #AC9757",
"2  c #B09A59",
"3  c #B49F5B",
"4  c #BFAC62",
"5  c #C3B265",
"6  c #BCA960",
"7  c #C1AD62",
"8  c #C0AA61",
"9  c #A28E51",
"0  c #A79254",
"q  c #B29C5A",
"w  c #B39D5A",
"e  c #B9A35E",
"r  c #B6A15C",
"t  c #BEAB61",
"y  c #C4B265",
"u  c #B7A25D",
"i  c #B59E5B",
"p  c #CDAB5F",
"a  c #C2B064",
"s  c #BDAA61",
"d  c #BAA45E",
"f  c #AF9958",
"g  c #BBA85F",
"h  c #AB9656",
"j  c #B9A55E",
"k  c #C1AE63",
"l  c #C6B466",
"z  c #BFA961",
"x  c #D8BA7A",
"c  c #A48F52",
"v  c #BDA960",
"b  c #9E8A4F",
"n  c #C3B064",
"m  c #BCA760",
"M  c #4E4E4E",
"N  c #414141",
"B  c #C7B566",
"V  c #BEA860",
"C  c #B5A05B",
"Z  c #C0AB62",
"A  c #B8A25D",
"S  c #BBA65F",
"D  c #A08D51",
"F  c #B7A15C",
"G  c #BEAA61",
"H  c #AB9756",
"J  c #AC9756",
"K  c #BBA75F",
"L  c #B9A45E",
"P  c #C19A45",
"I  c #BAA55E",
"U  c #BCA75F",
"Y  c #A99455",
"T  c #B5A05C",
"R  c #B7A35D",
"E  c #BAA75F",
"W  c #B29D5A",
"Q  c #AA9555",
"!  c #BBA55F",
"~  c #BAA65E",
"^  c #BDA860",
"/  c #B5A15C",
"(  c #B49D5A",
")  c #C5B365",
"_  c #B6A25C",
"`  c #B69F5C",
"'  c #A59053",
"]  c #B39E5A",
"[  c #A69153",
"{  c #AD9757",
"}  c #C2AF63",
"|  c #AA9756",
" . c #B39E5B",
".. c #9B864D",
"X. c #BEA960",
"o. c #B19D5A",
"O. c #AA9656",
"+. c #9E8B4F",
"@. c #C5B165",
"#. c #BBA960",
"$. c #BCA55F",
/* pixels */
"  . X o O + @ @ # $ % @ & * = = = = - $ ; o : X > . o , , , .   ",
"  < 1 2 3 4 @ 5 6 $ % 5 7 8 = = = = 9 0 ; o X X > ; q , X > .   ",
"  w e r q t y u   > . i = = p p p p = = q o , , o a s , o       ",
"  ; d i f r 6 g u w q q = = p p p p = = f o h o q s j h <   . f ",
"  ; d ; , , 1 k l z O , = = x x x x = = , o q 3 O q         h , ",
"c :   o , ; s y l z 3 , = = x x x x = = . o 1 o   v t t r   h , ",
"b 9 h X 0 j l y n m ; X = = M M N N = =   o X h   4 5 B v q 1 X ",
"o < e . b   V u C . o < = = M M N N = =   o h g t 3 C Z * A w < ",
"  w S   D . F q = = = = = = x x x x = = = = = = G H . d d e w < ",
"  q w   o   q 1 = = = = = = x x x x = = = = = = J X X h q i o X ",
"K L   ; K u = = P P p p P P = = = = P P p p P P = = o 1 q ;   . ",
"@ n q I @ Z = = P P p p P P = = = = P P p p P P = = ;   ; O O O ",
"U r Y   U T = = x x = = P P P P P P P P = = x x = = ; 3 q . . . ",
"  1 $ Y     = = x x = = P P P P P P P P = = x x = = w O < X X , ",
"    q q   o = = x x = = P P P P P P P P = = x x = = > h R k   , ",
"  q O 3   1 = = x x = = P P P P P P P P = = x x = = , , E @ W X ",
"Q h q K @ r = = x x = = = = x x x x = = = = x x = = , , ; ! ; q ",
"1 o . j @ u = = x x = = = = x x x x = = = = x x = = X h ; A ; w ",
"* e X r @ ~ = = x x = = x x x x x x x x = = x x = = f e i q A e ",
"7 ^ o ; G / = = x x = = x x x x x x x x = = x x = = w G r   ; i ",
"@ 5 i q , X X X = = = = p p = = = = p p = = = = q ; U @ v   h , ",
"R u ; ; ; o X 1 = = = = p p = = = = p p = = = = v e I G r   w w ",
", > q F z w > . < H = = p p = = = = p p = = . G n S A ; ( q O F ",
", 0 $ W ) L . o   6 = = p p = = = = p p = = G _ w ; ; i ` A Q c ",
", ' b % 5 I w o q 5 = = x x = = = = x x = = 5 W >   3 L u r c b ",
", , ' X o r e w T y = = x x = = = = x x = = 5 ] Q w U y / 0 0 [ ",
"1 { . { , q F I v } = = p p = = = = p p = = 6 | 0 3 S 4  .' c $ ",
"  ; d ; , , 1 k l z = = p p = = = = p p = = 0 D 9 A e   1 , D ..",
"  3 & X.; o > / R ; 1 9 = = 1 1 A ` = = o.O.c b +.. w   1 , c $ ",
"  r @ @.* q , X X , c ..= = e * r O = = ..+.$ b b ' 1   1 , , , ",
"  . O.o 3 o , , X . 0 ..Y w r A e A w T #.W X Q o ` U k C , ; A ",
"  h - c   1 , , h   X ..h O O O d A q I @ R X . ; $.& @ R , A * "
};
