/* XPM */
static char *result[] = {
/* columns rows colors chars-per-pixel */
"32 32 53 1 ",
"  c #6D4B25",
". c #6E4D25",
"X c #75522A",
"o c #7F592E",
"O c #946B3A",
"+ c #976D3C",
"@ c #BB8C56",
"# c #B68852",
"$ c #805A2E",
"% c #77542B",
"& c #956B3B",
"* c #986E3E",
"= c #B78952",
"- c #B88A55",
"; c #79552C",
": c #A47846",
"> c #A27643",
", c #BB8D58",
"< c #815B2E",
"1 c #7C572E",
"2 c #93693A",
"3 c #B58752",
"4 c #714D26",
"5 c #725028",
"6 c #A87A47",
"7 c #9C703F",
"8 c #9F7342",
"9 c #A37744",
"0 c #C99963",
"q c #C5965F",
"w c #735028",
"e c #755229",
"r c #9A703F",
"t c #9E7341",
"y c #C69660",
"u c #C4945E",
"i c #A97B47",
"p c #8D6637",
"a c #916939",
"s c #9D7140",
"d c #855E31",
"f c #B98A55",
"g c #C79761",
"h c #AA7D48",
"j c #A57947",
"k c #825B31",
"l c #C89862",
"z c #906839",
"x c black",
"c c #C2935C",
"v c #B1834D",
"b c #B38651",
"n c #AE814D",
/* pixels */
" .XoO+@#$%&*=-*&   .%;&&&&:>$%%%",
" .;$&*,=<12+3#*&. 451o&&&&6:<111",
" 4789:0q*2we&r&&%;7t88&&&&yurO88",
".5r86i0y7&XXpaaa$<899977ssqu>7::",
"%%1d#f,fr+8sX444>8*++*-fyghh==j:",
"11%k3f@-r+:8e.449>&O&+,,l0jj==:9",
",-<1O+:::j+Ooo9j   52+,f6::8e   ",
"-#k$aO6j::Oa1o8955 52+=398>s%455",
"r*Ozewf-6:w4xxxxxxxx2&$ow5o$aO88",
"&&&a54,f6j4.xxxxxxxx2&%X. %;2+::",
"&&&+>>11xxxxxxxxxxxxxxxx&&OO&+::",
"++*7jj%%xxxxxxxxxxxxxxxx+&r777::",
"9:3=-#xxxxxxxxxxxxxxxxxxxxuqqc6:",
"8>#=3vxxxxxxxxxxxxxxxxxxxxqyguj9",
"1o&OX5xxxxxxxxxxxxxxxxxxxx*7jj*+",
"%;2a5 xxxxxxxxxxxxxxxxxxxxO+99+&",
"%%%$xxxxxxxxxxxxxxxxxxxxxxxx985 ",
"oo1kxxxxxxxxxxxxxxxxxxxxxxxx8s4 ",
"#b99xxxxxxxxxxxxxxxxxxxxxxxxo1. ",
"vvj6xxxxxxxxxxxxxxxxxxxxxxxx<<w5",
"wX8hxxxxxxxxxxxxxxxxxxxxxxxxnb&2",
" 4thxxxxxxxxxxxxxxxxxxxxxxxxv=*+",
" 4xxxxxxxxxxxxxxxxxxxxxxxxxxxx::",
"5exxxxxxxxxxxxxxxxxxxxxxxxxxxx9:",
"8txxxxxxxxxxxxxxxxxxxxxxxxxxxx&+",
":9xxxxxxxxxxxxxxxxxxxxxxxxxxxxO&",
"&&xxxxxxxxxxxxxxxxxxxxxxxxxxxx1;",
"++xxxxxxxxxxxxxxxxxxxxxxxxxxxx;X",
"98xxxxxxxxxxxxxxxxxxxxxxxxxxxxe.",
"tsxxxxxxxxxxxxxxxxxxxxxxxxxxxx%5",
"4Xxxxxxxxxxxxxxxxxxxxxxxxxxxxx&O",
" wxxxxxxxxxxxxxxxxxxxxxxxxxxxx+&"
};
