/* XPM */
static char *_e6f840ce50a405ec8f69e9f73032bebNNKQysad7902NAFI[] = {
/* columns rows colors chars-per-pixel */
"32 32 96 2 ",
"   c #B19C59",
".  c #AF9A58",
"X  c #A99355",
"o  c #AE9958",
"O  c #B59F5B",
"+  c #C0AD62",
"@  c #C7B667",
"#  c #BEAC61",
"$  c #A38F52",
"%  c #AE9A58",
"&  c black",
"*  c #B49E5B",
"=  c #A89354",
"-  c #AA9556",
";  c #A89254",
":  c #B09B59",
">  c #AC9757",
",  c #B09A59",
"<  c #B49F5B",
"1  c #BFAC62",
"2  c #C3B265",
"3  c #BCA960",
"4  c #B29C5A",
"5  c #B39D5A",
"6  c #B9A35E",
"7  c #B6A15C",
"8  c #BEAB61",
"9  c #C4B265",
"0  c #B7A25D",
"q  c #884933",
"w  c #C2B064",
"e  c #BDAA61",
"r  c #BAA45E",
"t  c #B59E5B",
"y  c #AF9958",
"u  c #BBA85F",
"i  c #AB9656",
"p  c #B9A55E",
"a  c #C1AE63",
"s  c #C6B466",
"d  c #BFA961",
"f  c #B7B8B8",
"g  c #A48F52",
"h  c #BDA960",
"j  c #9E8A4F",
"k  c #A28E51",
"l  c #A79254",
"z  c #C3B064",
"x  c #BCA760",
"c  c #E9001A",
"v  c #C7B566",
"b  c #BEA860",
"n  c #B5A05B",
"m  c #C0AB62",
"M  c #BDA760",
"N  c #B8A25D",
"B  c #BBA65F",
"V  c #A08D51",
"C  c #B7A15C",
"Z  c #A99455",
"A  c #434343",
"S  c #BBA960",
"D  c #BEAA61",
"F  c #AB9756",
"G  c #AC9756",
"H  c #BBA75F",
"J  c #B9A45E",
"K  c #A59053",
"L  c gray57",
"P  c #B5A05C",
"I  c #BAA55E",
"U  c #BCA65F",
"Y  c #C4B164",
"T  c #BCA75F",
"R  c #A0A1A1",
"E  c #B7A35D",
"W  c #BAA75F",
"Q  c #B29D5A",
"!  c #AA9555",
"~  c #C1AD62",
"^  c #BDA860",
"/  c #B49D5A",
"(  c #B69F5C",
")  c #B5A15C",
"_  c #A69153",
"`  c #AD9757",
"'  c #B39E5B",
"]  c #9B864D",
"[  c #C2AD63",
"{  c #BEA960",
"}  c #B19D5A",
"|  c #AA9656",
" . c #C5B165",
".. c #9E8B4F",
"X. c #9C874E",
"o. c #BCA55F",
/* pixels */
"  . X o O + @ @ # $ % @ & & & & & & & & * o = X - . o ; ; ; .   ",
"  : > , < 1 @ 2 3 $ % 2 & & & & & & & & * o X X - * 4 ; X - .   ",
"  5 6 7 4 8 9 0   - & & q q q q q q q q & & ; ; o w e ; o       ",
"  * r t y 7 3 u 0 5 & & q q q q q q q q & & i o 4 e p i :   . y ",
"  * r * ; ; > a s d & & f f q q q q f f & & 4 < O 4         i ; ",
"g =   o ; * e 9 s d & & f f q q q q f f & & > o   h 8 8 7   i ; ",
"j k i X l p s 9 z x & & c c & & & & c c & & X i   1 2 v h 4 > X ",
"o : 6 . j   b 0 n . & & c c & & & & c c & & i u 8 < n m M N 5 : ",
"  5 B   V . C 4 o Z & & & & A A A A & & & & i S D F . r r 6 5 : ",
"  4 5   o   4 > X g & & & & A A A A & & & & Z i G X X i 4 t o X ",
"H J   * H 0 * i ; K & & L L A A A A L L & &   * P : o > 4 *   . ",
"@ z 4 I @ m N > ; ; & & L L A A A A L L & & U Y s I *   * O O O ",
"T 7 Z   T P * . & & & & R R A A A A R R & & & & D < * < 4 . . . ",
"  > $ Z         & & & & R R A A A A R R & & & & 6 5 5 O : X X ; ",
"    4 4 & & & & f f f f R R f f f f R R f f f f & & & & E a   ; ",
"  4 O < & & & & f f f f R R f f f f R R f f f f & & & & W @ Q X ",
"! i & & A A f f & & & & L L R R R R L L & & & & f f A A & & * 4 ",
"> o & & A A f f & & & & L L R R R R L L & & & & f f A A & & * 5 ",
"M 6 X 7 & & A A & & A A L L A A A A L L A A & & A A & & t 4 N 6 ",
"~ ^ o * & & A A & & A A L L A A A A L L A A & & A A & & 7   * t ",
"@ 2 t 4 ; X & & L L q q q q q q q q q q q q L L & & T @ h   i ; ",
"E 0 * * * o & & L L q q q q q q q q q q q q L L & & I D 7   5 5 ",
"; - 4 C & & L L L L q q q q q q q q q q q q L L L L & & / 4 O C ",
"; l $ Q & & L L L L q q q q q q q q q q q q L L L L & & ( N ! g ",
"; K j % & & L L & & & & q q q q q q q q & & & & L L & & 0 7 g j ",
"; ; K X & & L L & & & & q q q q q q q q & & & & L L & & ) l l _ ",
"> ` . ` & & L L & & I ; & & L L L L & & I 3 & & L L & & ' K g $ ",
"  * r * & & L L & & < ; & & L L L L & & @ E & & L L & & > ; V ] ",
"  < [ { * o & & E * > k K X & & & & .   } | g j & & 5   > ; g $ ",
"  7 @  .M 4 & & X ; g ] g X & & & & * > ] ..$ j & & >   > ; ; ; ",
"  . | o < o ; ; X . l ] Z 5 7 N 6 N 5 P S Q X ! o ( T a n ; * N ",
"  i X.g   > ; ; i   X ] i O O O r N 4 I @ E X . * o.[ @ E ; N M "
};
