/* XPM */
static char *_ac0ab1e32b448acc12700218c5c502f3Oqh3uYurjNMCn2z[] = {
/* columns rows colors chars-per-pixel */
"32 32 101 2 ",
"   c #B19C59",
".  c #AF9A58",
"X  c #A99355",
"o  c #AE9958",
"O  c #B59F5B",
"+  c #C0AD62",
"@  c #C7B667",
"#  c #BEAC61",
"$  c #A38F52",
"%  c #AE9A58",
"&  c #C2AD63",
"*  c #BDA760",
"=  c #B49F5B",
"-  c #9C874E",
";  c #B49E5B",
":  c #A89354",
">  c #AA9556",
",  c #A89254",
"<  c #B09B59",
"1  c #AC9757",
"2  c #B09A59",
"3  c #BFAC62",
"4  c #C3B265",
"5  c #BCA960",
"6  c #C1AD62",
"7  c #C0AA61",
"8  c #A28E51",
"9  c #A79254",
"0  c #B29C5A",
"q  c #B39D5A",
"w  c #B9A35E",
"e  c #B6A15C",
"r  c #BEAB61",
"t  c #C4B265",
"y  c #B7A25D",
"u  c #B59E5B",
"i  c #C2B064",
"p  c #BDAA61",
"a  c #BAA45E",
"s  c #AF9958",
"d  c #BBA85F",
"f  c #AB9656",
"g  c #B9A55E",
"h  c #C1AE63",
"j  c #C6B466",
"k  c #BFA961",
"l  c #B69F5C",
"z  c #B7A05C",
"x  c #A48F52",
"c  c #A59053",
"v  c #BDA960",
"b  c #9E8A4F",
"n  c #C3B064",
"m  c #BCA760",
"M  c black",
"N  c #C7B566",
"B  c #BEA860",
"V  c #B5A05B",
"C  c #C0AB62",
"Z  c #B8A25D",
"A  c #BBA65F",
"S  c #A08D51",
"D  c #B7A15C",
"F  c #D1D7B5",
"G  c #BEC695",
"H  c #BEAA61",
"J  c #AB9756",
"K  c #9BA568",
"L  c #AC9756",
"P  c #BBA75F",
"I  c #B9A45E",
"U  c #B5A05C",
"Y  c #BAA55E",
"T  c #BCA75F",
"R  c #A99455",
"E  c #B7A35D",
"W  c #BAA75F",
"Q  c #B29D5A",
"!  c #AA9555",
"~  c #A3AF69",
"^  c #BBA55F",
"/  c #BAA65E",
"(  c #BDA860",
")  c #B5A15C",
"_  c #B49D5A",
"`  c #C5B365",
"'  c #B39E5A",
"]  c #A69153",
"[  c #AD9757",
"{  c #C2AF63",
"}  c #808080",
"|  c #AA9756",
" . c #B39E5B",
".. c #9B864D",
"X. c #BEA960",
"o. c #B19D5A",
"O. c #AA9656",
"+. c #9E8B4F",
"@. c #C5B165",
"#. c #BBA960",
"$. c #BCA55F",
/* pixels */
"  . X o O + @ @ # $ % @ & * o X = . - $ ; o : X > . o , , , .   ",
"  < 1 2 = 3 @ 4 5 $ % 4 6 7 o X =   8 9 ; o X X > ; 0 , X > .   ",
"  q w e 0 r t y   > . u + @   X = ; 0   0 o , , o i p , o       ",
"  ; a u s e 5 d y q 0 0 y p 0 < e = . s s o f o 0 p g f <   . s ",
"  ; a ; , , 1 h j k O , , X l a a z X , , o 0 = O 0         f , ",
"x :   o , ; p t j k = , o 0 ; u 0 o 8 c . o 1 o   v r r e   f , ",
"b 8 f X 9 g j t n m M M M M M M M M M M M M X f   3 4 N v 0 1 X ",
"o < w . b   B y V . M M M M M M M M M M M M f d r = V C * Z q < ",
"  q A   S . D 0 M M F F G G G G G G G G G G M M H J . a a w q < ",
"  0 q   o   0 1 M M F K K K K K K K K K K G M M L X X f 0 u o X ",
"P I   ; P y ; f M M F K G G G G G G G G K G M M U < o 1 0 ;   . ",
"@ n 0 Y @ C Z 1 M M F K G G G G G G G G K G M M j Y ;   ; O O O ",
"T e R   T U ; . M M G K K K K K K K K K K G M M H = ; = 0 . . . ",
"  1 $ R         M M G G G G G G G G G G G G M M w q q O < X X , ",
"    0 0   o M M F F F F F F F F F F F F F F F F M M > f E h   , ",
"  0 O =   1 M M F F F F F F F F F F F F F F F F M M , , W @ Q X ",
"! f 0 P @ e M M G G G G ~ ~ ~ ~ ~ ~ ~ ~ ~ ~ ~ ~ M M , , ; ^ ; 0 ",
"1 o . g @ y M M G G G G ~ ~ ~ ~ ~ ~ ~ ~ ~ ~ ~ ~ M M X f ; Z ; q ",
"* w X e @ / . f M M G G G G G G G G G G ~ ~ M M ; > s w u 0 Z w ",
"6 ( o ; H ) o > M M G G G G G G G G G G ~ ~ M M ; . q H e   ; u ",
"@ 4 u 0 , X X X M M G G G G G G G G G G ~ ~ M M 0 ; T @ v   f , ",
"E y ; ; ; o X 1 M M G G G G G G G G G G ~ ~ M M v w Y H e   q q ",
", > 0 D k q > . M M G G G G G G G G G G ~ ~ M M n A Z ; _ 0 O D ",
", 9 $ Q ` I . o M M G G G G G G G G G G ~ ~ M M q ; ; u l Z ! x ",
", c b % 4 Y q o 0 4 M M M M M M M M M M M M 4 Q >   = I y e x b ",
", , c X o e w q U t M M M M M M M M M M M M 4 ' ! q T t ) 9 9 ] ",
"1 [ . [ , 0 D Y v { M M } } M M M M } } M M 5 | 9 = A 3  .c x $ ",
"  ; a ; , , 1 h j k M M } } M M M M } } M M 9 S 8 Z w   1 , S ..",
"  = & X.; o > ) E ; 1 8 M M 1 1 Z l M M o.O.x b +.. q   1 , x $ ",
"  e @ @.* 0 , X X , x ..M M w * e O M M ..+.$ b b c 1   1 , , , ",
"  . O.o = o , , X . 9 ..R q e Z w Z q U #.Q X ! o l T h V , ; Z ",
"  f - x   1 , , f   X ..f O O O a Z 0 Y @ E X . ; $.& @ E , Z * "
};
