/* XPM */
static char *result[] = {
/* columns rows colors chars-per-pixel */
"32 32 101 2 ",
"   c #B19C59",
".  c #AF9A58",
"X  c #A99355",
"o  c #AE9958",
"O  c #B59F5B",
"+  c #C0AD62",
"@  c #C7B667",
"#  c #BEAC61",
"$  c #A38F52",
"%  c #AE9A58",
"&  c #C2AD63",
"*  c #BDA760",
"=  c black",
"-  c #9C874E",
";  c #B49E5B",
":  c #A89354",
">  c #AA9556",
",  c #A89254",
"<  c #B09B59",
"1  c #AC9757",
"2  c #B09A59",
"3  c #B49F5B",
"4  c #BFAC62",
"5  c #C3B265",
"6  c #BCA960",
"7  c #C1AD62",
"8  c #C0AA61",
"9  c #A28E51",
"0  c #A79254",
"q  c #B29C5A",
"w  c #B39D5A",
"e  c #B9A35E",
"r  c #B6A15C",
"t  c #BEAB61",
"y  c #C4B265",
"u  c #B7A25D",
"i  c #B59E5B",
"p  c gray49",
"a  c #C2B064",
"s  c #BDAA61",
"d  c #BAA45E",
"f  c #AF9958",
"g  c #BBA85F",
"h  c #AB9656",
"j  c #B9A55E",
"k  c #C1AE63",
"l  c #C6B466",
"z  c #BFA961",
"x  c #929292",
"c  c #F11018",
"v  c #A48F52",
"b  c #BDA960",
"n  c #9E8A4F",
"m  c #C3B064",
"M  c #BCA760",
"N  c #C7B566",
"B  c #BEA860",
"V  c #B5A05B",
"C  c #C0AB62",
"Z  c #B8A25D",
"A  c #BBA65F",
"S  c #A08D51",
"D  c #B7A15C",
"F  c gray28",
"G  c #BEAA61",
"H  c #AB9756",
"J  c #AC9756",
"K  c #BBA75F",
"L  c #B9A45E",
"P  c #BAA55E",
"I  c #BCA75F",
"U  c #A99455",
"Y  c #B5A05C",
"T  c #AA9515",
"R  c #B7A35D",
"E  c #BAA75F",
"W  c #B29D5A",
"Q  c #AA9555",
"!  c #BBA55F",
"~  c #BAA65E",
"^  c #515151",
"/  c #BDA860",
"(  c #B5A15C",
")  c #B49D5A",
"_  c #C5B365",
"`  c #B69F5C",
"'  c #A59053",
"]  c #B39E5A",
"[  c #A69153",
"{  c #AD9757",
"}  c #C2AF63",
"|  c #AA9756",
" . c #B39E5B",
".. c #9B864D",
"X. c #BEA960",
"o. c #B19D5A",
"O. c #AA9656",
"+. c #9E8B4F",
"@. c #C5B165",
"#. c #BBA960",
"$. c #BCA55F",
/* pixels */
"  . X o O + @ @ # $ % @ & * = = = = - $ ; o : X > . o , , , .   ",
"  < 1 2 3 4 @ 5 6 $ % 5 7 8 = = = = 9 0 ; o X X > ; q , X > .   ",
"  w e r q t y u   > . i = = p p p p = = q o , , o a s , o       ",
"  ; d i f r 6 g u w q q = = p p p p = = f o h o q s j h <   . f ",
"  ; d ; , , 1 k l z O , = = x x c c = = , o q 3 O q         h , ",
"v :   o , ; s y l z 3 , = = x x c c = = . o 1 o   b t t r   h , ",
"n 9 h X 0 j l y m M ; X = = c c p p = =   o X h   4 5 N b q 1 X ",
"o < e . n   B u V . o < = = c c p p = =   o h g t 3 V C * Z w < ",
"  w A   S . D q = = = = = = F F F F = = = = = = G H . d d e w < ",
"  q w   o   q 1 = = = = = = F F F F = = = = = = J X X h q i o X ",
"K L   ; K u = = p p F F x x F F F F x x F F p p = = o 1 q ;   . ",
"@ m q P @ C = = p p F F x x F F F F x x F F p p = = ;   ; O O O ",
"I r U   I Y = = p p F F x x x x x x x x F F p p = = ; 3 q . . . ",
"  1 $ U     = = p p F F x x x x x x x x F F p p = = w O < X X , ",
"    q q   o = = F F = = T T p p p p T T = = F F = = > h R k   , ",
"  q O 3   1 = = F F = = T T p p p p T T = = F F = = , , E @ W X ",
"Q h q K @ r = = x x = = = = F F F F = = = = x x = = , , ; ! ; q ",
"1 o . j @ u = = x x = = = = F F F F = = = = x x = = X h ; Z ; w ",
"* e X r @ ~ = = F F = = F F ^ ^ ^ ^ F F = = F F = = f e i q Z e ",
"7 / o ; G ( = = F F = = F F ^ ^ ^ ^ F F = = F F = = w G r   ; i ",
"@ 5 i q , X = = F F = = p p F F F F p p = = F F = = I @ b   h , ",
"R u ; ; ; o = = F F = = p p F F F F p p = = F F = = P G r   w w ",
", > q D z w > . = = = = p p = = = = p p = = = = m A Z ; ) q O D ",
", 0 $ W _ L . o = = = = p p = = = = p p = = = = w ; ; i ` Z Q v ",
", ' n % 5 P w o q 5 = = F F = = = = F F = = 5 W >   3 L u r v n ",
", , ' X o r e w Y y = = F F = = = = F F = = 5 ] Q w I y ( 0 0 [ ",
"1 { . { , q D P b } = = x x = = = = x x = = 6 | 0 3 A 4  .' v $ ",
"  ; d ; , , 1 k l z = = x x = = = = x x = = 0 S 9 Z e   1 , S ..",
"  3 & X.; o > ( R ; 1 9 = = 1 1 Z ` = = o.O.v n +.. w   1 , v $ ",
"  r @ @.* q , X X , v ..= = e * r O = = ..+.$ n n ' 1   1 , , , ",
"  . O.o 3 o , , X . 0 ..U w r Z e Z w Y #.W X Q o ` I k V , ; Z ",
"  h - v   1 , , h   X ..h O O O d Z q P @ R X . ; $.& @ R , Z * "
};
