/* XPM */
static char *result[] = {
/* columns rows colors chars-per-pixel */
"32 32 82 1 ",
"  c #B19C59",
". c #AF9A58",
"X c #A99355",
"o c #AE9958",
"O c #B59F5B",
"+ c #C0AD62",
"@ c #C7B667",
"# c #BEAC61",
"$ c #A38F52",
"% c #AE9A58",
"& c #C2AD63",
"* c #BDA760",
"= c #B49F5B",
"- c #9C874E",
"; c #B49E5B",
": c #A89354",
"> c #AA9556",
", c #A89254",
"< c #B09B59",
"1 c #AC9757",
"2 c #B09A59",
"3 c #BFAC62",
"4 c #C3B265",
"5 c #BCA960",
"6 c #C1AD62",
"7 c #C0AA61",
"8 c #A28E51",
"9 c #A79254",
"0 c #B29C5A",
"q c #B39D5A",
"w c #B9A35E",
"e c #B6A15C",
"r c #BEAB61",
"t c #C4B265",
"y c #B7A25D",
"u c #B59E5B",
"i c #C2B064",
"p c #BDAA61",
"a c #BAA45E",
"s c #AF9958",
"d c #BBA85F",
"f c #AB9656",
"g c #B9A55E",
"h c #C1AE63",
"j c #C6B466",
"k c #BFA961",
"l c #B69F5C",
"z c #B7A05C",
"x c #A48F52",
"c c #A59053",
"v c #BDA960",
"b c #9E8A4F",
"n c #C3B064",
"m c #BCA760",
"M c #C7B566",
"N c #BEA860",
"B c #B5A05B",
"V c #C0AB62",
"C c #B8A25D",
"Z c #BBA65F",
"A c #A08D51",
"S c #B7A15C",
"D c #A99455",
"F c #AA9555",
"G c black",
"H c #BBA960",
"J c #BEAA61",
"K c #AB9756",
"L c #A69153",
"P c #AC9756",
"I c #BBA75F",
"U c #B9A45E",
"Y c #B5A05C",
"T c #BAA55E",
"R c #BCA75F",
"E c #B7A35D",
"W c #BAA75F",
"Q c #B29D5A",
"! c #BBA55F",
"~ c #BDA860",
"^ c #AD9757",
"/ c #9B864D",
/* pixels */
" .XoO+@@#$%@&*oX=.-$;o:X>.o,,,. ",
" <12=3@45$%467oX= 89;oXX>;0,X>. ",
" qwe0rty >.u+@ X=;0 0o,,oip,o   ",
" ;ause5dyq00yp0<e=.ssofo0pgf< .s",
" ;a;,,1hjkO,,XlaazX,,o0=O0    f,",
"x: o,;ptjk=,o0;u0o8c.o1o vrre f,",
"b8fX9gjtnm;X0Oq0fXbx oXf 34Mv01X",
"o<w.b NyB.o<;Owawu,f ofdr=BV*Cq<",
" qZ A.S0oDF<GGGGGGGGoffHJK.aawq<",
" 0q o 01XxLXGGGGGGGGb$DfPXXf0uoX",
"IU ;Iy;fGGGGGGGGGGGGGGGGY<o10; .",
"@n0T@VC1GGGGGGGGGGGGGGGGjT; ;OOO",
"ReD RYGGGGGGGGGGGGGGGGGGGG;=0...",
" 1$D  GGGGGGGGGGGGGGGGGGGGqO<XX,",
"  00 oGGGGGGGGGGGGGGGGGGGG>fEh ,",
" 0O= 1GGGGGGGGGGGGGGGGGGGG,,W@QX",
"Ff0IGGGGGGGGGGGGGGGGGGGGGGGG;!;0",
"1o.gGGGGGGGGGGGGGGGGGGGGGGGG;C;q",
"*wXeGGGGGGGGGGGGGGGGGGGGGGGGu0Cw",
"6~o;GGGGGGGGGGGGGGGGGGGGGGGGe ;u",
"@4u0GGGGGGGGGGGGGGGGGGGGGGGGv f,",
"Ey;;GGGGGGGGGGGGGGGGGGGGGGGGe qq",
",>GGGGGGGGGGGGGGGGGGGGGGGGGGGGOS",
",9GGGGGGGGGGGGGGGGGGGGGGGGGGGGFx",
",cGGGGGGGGGGGGGGGGGGGGGGGGGGGGxb",
",,GGGGGGGGGGGGGGGGGGGGGGGGGGGG9L",
"1^GGGGGGGGGGGGGGGGGGGGGGGGGGGGx$",
" ;GGGGGGGGGGGGGGGGGGGGGGGGGGGGA/",
" =GGGGGGGGGGGGGGGGGGGGGGGGGGGGx$",
" eGGGGGGGGGGGGGGGGGGGGGGGGGGGG,,",
" .GGGGGGGGGGGGGGGGGGGGGGGGGGGG;C",
" fGGGGGGGGGGGGGGGGGGGGGGGGGGGGC*"
};
