/* XPM */
static char *result[] = {
/* columns rows colors chars-per-pixel */
"32 32 94 2 ",
"   c #B19C59",
".  c #AF9A58",
"X  c #A99355",
"o  c #AE9958",
"O  c #B59F5B",
"+  c #C0AD62",
"@  c #C7B667",
"#  c #BEAC61",
"$  c #A38F52",
"%  c #AE9A58",
"&  c #C2AD63",
"*  c #BDA760",
"=  c #B49F5B",
"-  c #9C874E",
";  c #B49E5B",
":  c #A89354",
">  c #AA9556",
",  c #A89254",
"<  c #B09B59",
"1  c #AC9757",
"2  c #B09A59",
"3  c #BFAC62",
"4  c #C3B265",
"5  c #BCA960",
"6  c #C1AD62",
"7  c #C0AA61",
"8  c #A28E51",
"9  c #A79254",
"0  c #B29C5A",
"q  c #B39D5A",
"w  c #B9A35E",
"e  c #B6A15C",
"r  c #BEAB61",
"t  c #C4B265",
"y  c #B7A25D",
"u  c #B59E5B",
"i  c black",
"p  c #C2B064",
"a  c #BDAA61",
"s  c #BAA45E",
"d  c #AF9958",
"f  c #BBA85F",
"g  c #AB9656",
"h  c #B9A55E",
"j  c #C1AE63",
"k  c #C6B466",
"l  c #BFA961",
"z  c #7C4C30",
"x  c #A48F52",
"c  c #BDA960",
"v  c #9E8A4F",
"b  c #C3B064",
"n  c #BCA760",
"m  c #C7B566",
"M  c #BEA860",
"N  c #B5A05B",
"B  c #C0AB62",
"V  c #B8A25D",
"C  c #BBA65F",
"Z  c #A08D51",
"A  c #B7A15C",
"S  c #BEAA61",
"D  c #AB9756",
"F  c #AC9756",
"G  c #BBA75F",
"H  c #B9A45E",
"J  c #B5A05C",
"K  c #BAA55E",
"L  c #BCA75F",
"P  c #A99455",
"I  c #F7EC00",
"U  c #4E2D1B",
"Y  c #898989",
"T  c #B7A35D",
"R  c #BAA75F",
"E  c #B29D5A",
"W  c #AA9555",
"Q  c #BBA55F",
"!  c #BDA860",
"~  c #B49D5A",
"^  c #C5B365",
"/  c #B69F5C",
"(  c #A59053",
")  c #B5A15C",
"_  c #A69153",
"`  c #AD9757",
"'  c #B39E5B",
"]  c #9B864D",
"[  c #BEA960",
"{  c #9E8B4F",
"}  c #C5B165",
"|  c #AA9656",
" . c #BBA960",
".. c #BCA55F",
/* pixels */
"  . X o O + @ @ # $ % @ & * o X = . - $ ; o : X > . o , , , .   ",
"  < 1 2 = 3 @ 4 5 $ % 4 6 7 o X =   8 9 ; o X X > ; 0 , X > .   ",
"  q w e 0 r t y   > . u i i i i i i i i 0 o , , o p a , o       ",
"  ; s u d e 5 f y q 0 0 i i i i i i i i d o g o 0 a h g <   . d ",
"  ; s ; , , 1 j k l i i z z z z z z z z i i 0 = O 0         g , ",
"x :   o , ; a t k l i i z z z z z z z z i i 1 o   c r r e   g , ",
"v 8 g X 9 h k t b n i i z z z z z z z z i i X g   3 4 m c 0 1 X ",
"o < w . v   M y N . i i z z z z z z z z i i g f r = N B * V q < ",
"  q C   Z . A 0 i i z z z z i i i i z z z z i i S D . s s w q < ",
"  0 q   o   0 1 i i z z z z i i i i z z z z i i F X X g 0 u o X ",
"G H   ; G y ; g i i z z i i i i i i i i z z i i J < o 1 0 ;   . ",
"@ b 0 K @ B V 1 i i z z i i i i i i i i z z i i k K ;   ; O O O ",
"L e P   L J ; . i i z z I I i i i i I I z z i i S = ; = 0 . . . ",
"  1 $ P         i i z z I I i i i i I I z z i i w q q O < X X , ",
"    0 0   o i i U U z z i i i i i i i i z z Y Y i i > g T j   , ",
"  0 O =   1 i i U U z z i i i i i i i i z z Y Y i i , , R @ E X ",
"W g 0 G i i z z z z U U z z z z z z z z Y Y z z z z i i ; Q ; 0 ",
"1 o . h i i z z z z U U z z z z z z z z Y Y z z z z i i ; V ; q ",
"* w X e i i z z i i z z U U z z z z Y Y z z i i z z i i u 0 V w ",
"6 ! o ; i i z z i i z z U U z z z z Y Y z z i i z z i i e   ; u ",
"@ 4 u 0 i i z z i i z z z z U U U U z z z z i i z z i i c   g , ",
"T y ; ; i i z z i i z z z z U U U U z z z z i i z z i i e   q q ",
", > 0 A l q i i i i Y Y Y Y z z z z U U U U i i i i V ; ~ 0 O A ",
", 9 $ E ^ H i i i i Y Y Y Y z z z z U U U U i i i i ; u / V W x ",
", ( v % 4 K q o i i z z z z z z z z z z z z i i >   = H y e x v ",
", , ( X o e w q i i z z z z z z z z z z z z i i W q L t ) 9 9 _ ",
"1 ` . ` , 0 i i z z z z z z z z z z z z z z z z i i C 3 ' ( x $ ",
"  ; s ; , , i i z z z z z z z z z z z z z z z z i i w   1 , Z ] ",
"  = & [ ; o > ) i i i i i i i i i i i i i i i i { . q   1 , x $ ",
"  e @ } * 0 , X i i i i i i i i i i i i i i i i v ( 1   1 , , , ",
"  . | o = o , , X . 9 ] P q e V w V q J  .E X W o / L j N , ; V ",
"  g - x   1 , , g   X ] g O O O s V 0 K @ T X . ; ..& @ T , V * "
};
