/* XPM */
static char *e81b2da3b8c542bec92616daf8142a77G12nNCzoymqs8bZ3[] = {
/* columns rows colors chars-per-pixel */
"32 32 97 2 ",
"   c #B19C59",
".  c #AF9A58",
"X  c #A99355",
"o  c #AE9958",
"O  c #B59F5B",
"+  c #C0AD62",
"@  c #C7B667",
"#  c #BEAC61",
"$  c #A38F52",
"%  c #AE9A58",
"&  c #C2AD63",
"*  c #BDA760",
"=  c #B49F5B",
"-  c #9C874E",
";  c #B49E5B",
":  c #A89354",
">  c #AA9556",
",  c #A89254",
"<  c #B09B59",
"1  c #AC9757",
"2  c #B09A59",
"3  c #BFAC62",
"4  c #C3B265",
"5  c #BCA960",
"6  c #C1AD62",
"7  c #C0AA61",
"8  c #A28E51",
"9  c #A79254",
"0  c #B29C5A",
"q  c #B39D5A",
"w  c #B9A35E",
"e  c #B6A15C",
"r  c #BEAB61",
"t  c #C4B265",
"y  c #B7A25D",
"u  c #B59E5B",
"i  c #C2B064",
"p  c #BDAA61",
"a  c #BAA45E",
"s  c #AF9958",
"d  c #BBA85F",
"f  c #AB9656",
"g  c #B9A55E",
"h  c #C1AE63",
"j  c #C6B466",
"k  c #BFA961",
"l  c black",
"z  c #A48F52",
"x  c #BDA960",
"c  c #9E8A4F",
"v  c #C3B064",
"b  c #BCA760",
"n  c #57739F",
"m  c #D2D2D2",
"M  c #C7B566",
"N  c #BEA860",
"B  c #B5A05B",
"V  c #C0AB62",
"C  c #B8A25D",
"Z  c #BBA65F",
"A  c #A08D51",
"S  c #B7A15C",
"D  c #2A28B8",
"F  c #BEAA61",
"G  c #AB9756",
"H  c #AC9756",
"J  c #BBA75F",
"K  c #B9A45E",
"L  c white",
"P  c #B5A05C",
"I  c #BAA55E",
"U  c #BCA75F",
"Y  c #A99455",
"T  c #B7A35D",
"R  c #BAA75F",
"E  c #B29D5A",
"W  c #AA9555",
"Q  c #BBA55F",
"!  c #BAA65E",
"~  c #40419E",
"^  c #BDA860",
"/  c #B5A15C",
"(  c #B49D5A",
")  c #C5B365",
"_  c #B69F5C",
"`  c #A59053",
"'  c #A69153",
"]  c #AD9757",
"[  c #C2AF63",
"{  c #B39E5B",
"}  c #9B864D",
"|  c #BEA960",
" . c #9E8B4F",
".. c #C5B165",
"X. c #AA9656",
"o. c #BBA960",
"O. c #BCA55F",
/* pixels */
"  . X o O + @ @ # $ % @ & * o X = . - $ ; o : X > . o , , , .   ",
"  < 1 2 = 3 @ 4 5 $ % 4 6 7 o X =   8 9 ; o X X > ; 0 , X > .   ",
"  q w e 0 r t y   > . u + @   X = ; 0   0 o , , o i p , o       ",
"  ; a u s e 5 d y q 0 0 y p 0 < e = . s s o f o 0 p g f <   . s ",
"  ; a ; , , 1 h j k O , l l l l l l l l , o 0 = O 0         f , ",
"z :   o , ; p t j k = , l l l l l l l l . o 1 o   x r r e   f , ",
"c 8 f X 9 g j t v b l l n n l l m m m m l l X f   3 4 M x 0 1 X ",
"o < w . c   N y B . l l n n l l m m m m l l f d r = B V * C q < ",
"  q Z   A . S 0 l l m m D D D D m m D D n n l l F G . a a w q < ",
"  0 q   o   0 1 l l m m D D D D m m D D n n l l H X X f 0 u o X ",
"J K   ; J y ; f l l D D L L L L L L L L D D l l P < o 1 0 ;   . ",
"@ v 0 I @ V C 1 l l D D L L L L L L L L D D l l j I ;   ; O O O ",
"U e Y   U P l l m m L L L L n n n n L L L L m m l l ; = 0 . . . ",
"  1 $ Y     l l m m L L L L n n n n L L L L m m l l q O < X X , ",
"    0 0   o l l m m L L m m n n n n L L L L m m l l > f T h   , ",
"  0 O =   1 l l m m L L m m n n n n L L L L m m l l , , R @ E X ",
"W f 0 J @ e l l n n L L m m n n n n L L L L n n l l , , ; Q ; 0 ",
"1 o . g @ y l l n n L L m m n n n n L L L L n n l l X f ; C ; q ",
"* w X e @ ! l l ~ ~ L L m m L L L L L L L L ~ ~ l l s w u 0 C w ",
"6 ^ o ; F / l l ~ ~ L L m m L L L L L L L L ~ ~ l l q F e   ; u ",
"@ 4 u 0 , X l l ~ ~ L L m m n n n n L L m m ~ ~ l l U @ x   f , ",
"T y ; ; ; o l l ~ ~ L L m m n n n n L L m m ~ ~ l l I F e   q q ",
", > 0 S k q l l ~ ~ l l m m m m m m m m l l ~ ~ l l C ; ( 0 O S ",
", 9 $ E ) K l l ~ ~ l l m m m m m m m m l l ~ ~ l l ; u _ C W z ",
", ` c % 4 I l l m m l l l l l l l l l l l l m m l l = K y e z c ",
", , ` X o e l l m m l l l l l l l l l l l l m m l l U t / 9 9 ' ",
"1 ] . ] , 0 l l L L L L l l   Y [ r l l L L L L l l Z 3 { ` z $ ",
"  ; a ; , , l l L L L L l l c - w e l l L L L L l l w   1 , A } ",
"  = & | ; o > / l l l l ` X 1 1 C _ .   l l l l  .. q   1 , z $ ",
"  e @ ..* 0 , X l l l l z X w * e O ; 1 l l l l c ` 1   1 , , , ",
"  . X.o = o , , X . 9 } Y q e C w C q P o.E X W o _ U h B , ; C ",
"  f - z   1 , , f   X } f O O O a C 0 I @ T X . ; O.& @ T , C * "
};
