/* XPM */
static char *e2e609394e3d43fbd4d8c03d1a87b4b30NnSB56wcek8CjmF[] = {
/* columns rows colors chars-per-pixel */
"32 32 11 1 ",
"  c None",
". c black",
"X c #808080",
"o c white",
"O c #EC161F",
"+ c #DCD7D7",
"@ c #5A5A5A",
"# c #C5C2C2",
"$ c #858181",
"% c #B1B1B1",
"& c #D00813",
/* pixels */
"                                ",
"                                ",
"            ........            ",
"            ........            ",
"          ..XXooooOO..          ",
"          ..XXooooOO..          ",
"          ..++@@++oo..          ",
"          ..++@@++oo..          ",
"        ..##OOOOOOOOoo..        ",
"        ..##OOOOOOOOoo..        ",
"        ..OOooooooooOO..        ",
"        ..OOooooooooOO..        ",
"      ..++oo++++++++oo++..      ",
"      ..++oo++++++++oo++..      ",
"      ..++ooOOoo$$oooo++..      ",
"      ..++ooOOoo$$oooo++..      ",
"      ..%%ooOO&&oooo++oo..      ",
"      ..%%ooOO&&oooo++oo..      ",
"      ..OOooOO++$$oo++&&..      ",
"      ..OOooOO++$$oo++&&..      ",
"      ..OOooOOoo&&ooOO&&..      ",
"      ..OOooOOoo&&ooOO&&..      ",
"      ..OO..++%%++%%..&&..      ",
"      ..OO..++%%++%%..&&..      ",
"      ..++............++..      ",
"      ..++............++..      ",
"      ..oooo..    ..oooo..      ",
"      ..oooo..    ..oooo..      ",
"        ....        ....        ",
"        ....        ....        ",
"                                ",
"                                "
};
