/* XPM */
static char *e7bfa6de85e7425ac8f65df918f56504V2DMrIXOdAGL4hhq[] = {
/* columns rows colors chars-per-pixel */
"32 32 101 2 ",
"   c #B19C59",
".  c #AF9A58",
"X  c #A99355",
"o  c #AE9958",
"O  c #B59F5B",
"+  c #C0AD62",
"@  c #C7B667",
"#  c #BEAC61",
"$  c #A38F52",
"%  c #AE9A58",
"&  c #C2AD63",
"*  c #BDA760",
"=  c #B49F5B",
"-  c #9C874E",
";  c #B49E5B",
":  c #A89354",
">  c #AA9556",
",  c #A89254",
"<  c #B09B59",
"1  c #AC9757",
"2  c #B09A59",
"3  c #BFAC62",
"4  c #C3B265",
"5  c #BCA960",
"6  c #C1AD62",
"7  c #C0AA61",
"8  c #A28E51",
"9  c #A79254",
"0  c #B29C5A",
"q  c #B39D5A",
"w  c #B9A35E",
"e  c #B6A15C",
"r  c #BEAB61",
"t  c #C4B265",
"y  c #B7A25D",
"u  c #B59E5B",
"i  c black",
"p  c #C2B064",
"a  c #BDAA61",
"s  c #BAA45E",
"d  c #AF9958",
"f  c #BBA85F",
"g  c #AB9656",
"h  c #B9A55E",
"j  c #C1AE63",
"k  c #C6B466",
"l  c #BFA961",
"z  c #808080",
"x  c white",
"c  c #EC161F",
"v  c #A48F52",
"b  c #BDA960",
"n  c #9E8A4F",
"m  c #C3B064",
"M  c #BCA760",
"N  c #DCD7D7",
"B  c #5A5A5A",
"V  c #C7B566",
"C  c #BEA860",
"Z  c #B5A05B",
"A  c #C0AB62",
"S  c #B8A25D",
"D  c #BBA65F",
"F  c #A08D51",
"G  c #B7A15C",
"H  c #C5C2C2",
"J  c #BEAA61",
"K  c #AB9756",
"L  c #AC9756",
"P  c #BBA75F",
"I  c #B9A45E",
"U  c #B5A05C",
"Y  c #BAA55E",
"T  c #BCA75F",
"R  c #A99455",
"E  c #858181",
"W  c #B7A35D",
"Q  c #BAA75F",
"!  c #B29D5A",
"~  c #AA9555",
"^  c #B1B1B1",
"/  c #D00813",
"(  c #BBA55F",
")  c #BAA65E",
"_  c #BDA860",
"`  c #B5A15C",
"'  c #B49D5A",
"]  c #C5B365",
"[  c #B69F5C",
"{  c #A59053",
"}  c #A69153",
"|  c #AD9757",
" . c #C2AF63",
".. c #B39E5B",
"X. c #9B864D",
"o. c #BEA960",
"O. c #9E8B4F",
"+. c #C5B165",
"@. c #AA9656",
"#. c #BBA960",
"$. c #BCA55F",
/* pixels */
"  . X o O + @ @ # $ % @ & * o X = . - $ ; o : X > . o , , , .   ",
"  < 1 2 = 3 @ 4 5 $ % 4 6 7 o X =   8 9 ; o X X > ; 0 , X > .   ",
"  q w e 0 r t y   > . u i i i i i i i i 0 o , , o p a , o       ",
"  ; s u d e 5 f y q 0 0 i i i i i i i i d o g o 0 a h g <   . d ",
"  ; s ; , , 1 j k l i i z z x x x x c c i i 0 = O 0         g , ",
"v :   o , ; a t k l i i z z x x x x c c i i 1 o   b r r e   g , ",
"n 8 g X 9 h k t m M i i N N B B N N x x i i X g   3 4 V b 0 1 X ",
"o < w . n   C y Z . i i N N B B N N x x i i g f r = Z A * S q < ",
"  q D   F . G 0 i i H H c c c c c c c c x x i i J K . s s w q < ",
"  0 q   o   0 1 i i H H c c c c c c c c x x i i L X X g 0 u o X ",
"P I   ; P y ; g i i c c x x x x x x x x c c i i U < o 1 0 ;   . ",
"@ m 0 Y @ A S 1 i i c c x x x x x x x x c c i i k Y ;   ; O O O ",
"T e R   T U i i N N x x N N N N N N N N x x N N i i ; = 0 . . . ",
"  1 $ R     i i N N x x N N N N N N N N x x N N i i q O < X X , ",
"    0 0   o i i N N x x c c x x E E x x x x N N i i > g W j   , ",
"  0 O =   1 i i N N x x c c x x E E x x x x N N i i , , Q @ ! X ",
"~ g 0 P @ e i i ^ ^ x x c c / / x x x x N N x x i i , , ; ( ; 0 ",
"1 o . h @ y i i ^ ^ x x c c / / x x x x N N x x i i X g ; S ; q ",
"* w X e @ ) i i c c x x c c N N E E x x N N / / i i d w u 0 S w ",
"6 _ o ; J ` i i c c x x c c N N E E x x N N / / i i q J e   ; u ",
"@ 4 u 0 , X i i c c x x c c x x / / x x c c / / i i T @ b   g , ",
"W y ; ; ; o i i c c x x c c x x / / x x c c / / i i Y J e   q q ",
", > 0 G l q i i c c i i N N ^ ^ N N ^ ^ i i / / i i S ; ' 0 O G ",
", 9 $ ! ] I i i c c i i N N ^ ^ N N ^ ^ i i / / i i ; u [ S ~ v ",
", { n % 4 Y i i N N i i i i i i i i i i i i N N i i = I y e v n ",
", , { X o e i i N N i i i i i i i i i i i i N N i i T t ` 9 9 } ",
"1 | . | , 0 i i x x x x i i   R  .r i i x x x x i i D 3 ..{ v $ ",
"  ; s ; , , i i x x x x i i n - w e i i x x x x i i w   1 , F X.",
"  = & o.; o > ` i i i i { X 1 1 S [ .   i i i i O.. q   1 , v $ ",
"  e @ +.* 0 , X i i i i v X w * e O ; 1 i i i i n { 1   1 , , , ",
"  . @.o = o , , X . 9 X.R q e S w S q U #.! X ~ o [ T j Z , ; S ",
"  g - v   1 , , g   X X.g O O O s S 0 Y @ W X . ; $.& @ W , S * "
};
