/* XPM */
static char *_7646d3502704993815afe621a9d903dlTHtG62dG40aeBDv[] = {
/* columns rows colors chars-per-pixel */
"32 32 102 2 ",
"   c #B19C59",
".  c #AF9A58",
"X  c #A99355",
"o  c #AE9958",
"O  c #B59F5B",
"+  c #C0AD62",
"@  c #C7B667",
"#  c #BEAC61",
"$  c #A38F52",
"%  c #AE9A58",
"&  c #C2AD63",
"*  c #BDA760",
"=  c #B49F5B",
"-  c #9C874E",
";  c #B49E5B",
":  c #A89354",
">  c #AA9556",
",  c #A89254",
"<  c #B09B59",
"1  c #AC9757",
"2  c #B09A59",
"3  c #BFAC62",
"4  c #C3B265",
"5  c #BCA960",
"6  c #C1AD62",
"7  c #C0AA61",
"8  c #A28E51",
"9  c #A79254",
"0  c #B29C5A",
"q  c #B39D5A",
"w  c #B9A35E",
"e  c #B6A15C",
"r  c #BEAB61",
"t  c #C4B265",
"y  c #B7A25D",
"u  c #B59E5B",
"i  c #C2B064",
"p  c #BDAA61",
"a  c #BAA45E",
"s  c #AF9958",
"d  c #BBA85F",
"f  c #AB9656",
"g  c #B9A55E",
"h  c #C1AE63",
"j  c #C6B466",
"k  c #BFA961",
"l  c #B69F5C",
"z  c #B7A05C",
"x  c #A48F52",
"c  c #A59053",
"v  c #BDA960",
"b  c #9E8A4F",
"n  c #C3B064",
"m  c #BCA760",
"M  c #C7B566",
"N  c #BEA860",
"B  c #B5A05B",
"V  c #C0AB62",
"C  c #B8A25D",
"Z  c #BBA65F",
"A  c #A08D51",
"S  c #B7A15C",
"D  c #A99455",
"F  c #AA9555",
"G  c black",
"H  c #BBA960",
"J  c #BEAA61",
"K  c #AB9756",
"L  c #A69153",
"P  c #AC9756",
"I  c #BBA75F",
"U  c #B9A45E",
"Y  c #F7AC4E",
"T  c #B5A05C",
"R  c #BAA55E",
"E  c #9B864D",
"W  c #BCA65F",
"Q  c #C4B164",
"!  c #BCA75F",
"~  c #AE9757",
"^  c #E29C5A",
"/  c #B7A35D",
"(  c #BAA75F",
")  c #B29D5A",
"_  c #D58860",
"`  c #9E8B4F",
"'  c #BBA55F",
"]  c #B49D5A",
"[  c #BAA65E",
"{  c #BDA860",
"}  c #B5A15C",
"|  c #C5B365",
" . c #B39E5A",
".. c #AD9757",
"X. c #C2AF63",
"o. c #AA9756",
"O. c #B39E5B",
"+. c #BEA960",
"@. c #B19D5A",
"#. c #AA9656",
"$. c #C5B165",
"%. c #BCA55F",
/* pixels */
"  . X o O + @ @ # $ % @ & * o X = . - $ ; o : X > . o , , , .   ",
"  < 1 2 = 3 @ 4 5 $ % 4 6 7 o X =   8 9 ; o X X > ; 0 , X > .   ",
"  q w e 0 r t y   > . u + @   X = ; 0   0 o , , o i p , o       ",
"  ; a u s e 5 d y q 0 0 y p 0 < e = . s s o f o 0 p g f <   . s ",
"  ; a ; , , 1 h j k O , , X l a a z X , , o 0 = O 0         f , ",
"x :   o , ; p t j k = , o 0 ; u 0 o 8 c . o 1 o   v r r e   f , ",
"b 8 f X 9 g j t n m ; X 0 O q 0 f X b x   o X f   3 4 M v 0 1 X ",
"o < w . b   N y B . o < ; O w a w u , f   o f d r = B V * C q < ",
"  q Z   A . S 0 o D F < ; O G G G G 1 f o f f H J K . a a w q < ",
"  0 q   o   0 1 X x L X 0 ; G G G G   f b $ D f P X X f 0 u o X ",
"I U   ; I y ; f , c x x G G Y Y Y Y G G x F   ; T < o 1 0 ;   . ",
"@ n 0 R @ V C 1 , , x E G G Y Y Y Y G G   l W Q j R ;   ; O O O ",
"! e D   ! T ; . ~ X G G Y Y G G G G Y Y G G   ! J = ; = 0 . . . ",
"  1 $ D         . X G G Y Y G G G G Y Y G G F = w q q O < X X , ",
"    0 0   o f q G G ^ ^ ^ ^ G G G G ^ ^ ^ ^ G G a o > f / h   , ",
"  0 O =   1 > ; G G ^ ^ ^ ^ G G G G ^ ^ ^ ^ G G a f , , ( @ ) X ",
"F f 0 I @ e > ; O = G G G G _ _ _ _ G G G G w 9 ` c , , ; ' ; 0 ",
"1 o . g @ y f 0 ; ] G G G G _ _ _ _ G G G G z X 8 9 X f ; C ; q ",
"* w X e @ [ . f G G Y Y _ _ Y Y Y Y _ _ Y Y G G ; > s w u 0 C w ",
"6 { o ; J } o > G G Y Y _ _ Y Y Y Y _ _ Y Y G G ; . q J e   ; u ",
"@ 4 u 0 , X X X G G Y Y G G Y Y Y Y G G Y Y G G 0 ; ! @ v   f , ",
"/ y ; ; ; o X 1 G G Y Y G G Y Y Y Y G G Y Y G G v w R J e   q q ",
", > 0 S k q > . G G ^ ^ G G ^ ^ ^ ^ G G ^ ^ G G n Z C ; ] 0 O S ",
", 9 $ ) | U . o G G ^ ^ G G ^ ^ ^ ^ G G ^ ^ G G q ; ; u l C F x ",
", c b % 4 R q o 0 4 G G Y Y G G G G Y Y G G 4 ) >   = U y e x b ",
", , c X o e w q T t G G Y Y G G G G Y Y G G 4  .F q ! t } 9 9 L ",
"1 ... .., 0 S R v X.G G Y Y G G G G Y Y G G 5 o.9 = Z 3 O.c x $ ",
"  ; a ; , , 1 h j k G G Y Y G G G G Y Y G G 9 A 8 C w   1 , A E ",
"  = & +.; o > } / ; 1 8 G G 1 1 C l G G @.#.x b ` . q   1 , x $ ",
"  e @ $.* 0 , X X , x E G G w * e O G G E ` $ b b c 1   1 , , , ",
"  . #.o = o , , X . 9 E D q e C w C q T H ) X F o l ! h B , ; C ",
"  f - x   1 , , f   X E f O O O a C 0 R @ / X . ; %.& @ / , C * "
};
