/* XPM */
static char *_8b1a6f1bb1c4cca81c195bfd2bfb520SxLhQgIeeKRhbuIw[] = {
/* columns rows colors chars-per-pixel */
"32 32 58 1 ",
"  c #6D4B25",
". c #6E4D25",
"X c #75522A",
"o c #7F592E",
"O c #946B3A",
"+ c #976D3C",
"@ c #BB8C56",
"# c #B68852",
"$ c #805A2E",
"% c #77542B",
"& c #956B3B",
"* c #986E3E",
"= c #B78952",
"- c #B88A55",
"; c #79552C",
": c #A47846",
"> c #A27643",
", c #BB8D58",
"< c #815B2E",
"1 c #7C572E",
"2 c #93693A",
"3 c #B58752",
"4 c #714D26",
"5 c #725028",
"6 c #A87A47",
"7 c #9C703F",
"8 c #9F7342",
"9 c #A37744",
"0 c #C99963",
"q c #C5965F",
"w c #735028",
"e c #755229",
"r c #9A703F",
"t c #9E7341",
"y c #C69660",
"u c #C4945E",
"i c #A97B47",
"p c #8D6637",
"a c #916939",
"s c #9D7140",
"d c #855E31",
"f c #B98A55",
"g c #C79761",
"h c #AA7D48",
"j c #A57947",
"k c #825B31",
"l c #C89862",
"z c #906839",
"x c #C2935C",
"c c #B38651",
"v c #B1834D",
"b c #BC8F58",
"n c #AC7F4B",
"m c #AE814D",
"M c #CA9A64",
"N c #AB7E49",
"B c #BF915B",
"V c #BE8F59",
/* pixels */
" .XoO+@#$%&*=-*&   .%;&&&&:>$%%%",
" .;$&*,=<12+3#*&. 451o&&&&6:<111",
" 4789:0q*2we&r&&%;7t88&&&&yurO88",
".5r86i0y7&XXpaaa$<899977ssqu>7::",
"%%1d#f,fr+8sX444>8*++*-fyghh==j:",
"11%k3f@-r+:8e.449>&O&+,,l0jj==:9",
",-<1O+:::j+Ooo9j   52+,f6::8e   ",
"-#k$aO6j::Oa1o8955 52+=398>s%455",
"r*Ozewf-6:w4.w&+8sw52&$ow5o$aO88",
"&&&a54,f6j4..5O&:>ww2&%X. %;2+::",
"&&&+>>11;1O&>jff::9to1:>&&OO&+::",
"++*7jj%%oo+*6h,,:9:8k<>8+&r777::",
"9:3=-#%1s89jxg00**96cve%O&uqqx6:",
"8>#=3v%1s8:iqlyy&+963cX%zaqyguj9",
"1o&OX5..;196f-7r&+98<<=vX.*7jj*+",
"%;2a5  .%%96-=*&&+98o1,#w O+99+&",
"%%%$>:&&&&;%%%%%.  w2+:85 O+985 ",
"oo1k9jrr**1;%%%%444X&r:8e42&8s4 ",
"#c99=fgq--Oaw...a2t9#=::88o1o1. ",
"vvj6@bgq-=+25 we&+in,bi6::;%<<w5",
"wX8hgli67r&25ws8&*ul00f-j:4emc&2",
" 4thgl:9&OO2eX89+rq0M0-=:94ev=*+",
" 4a+::&O1%%$3#o%:::if- .. O&&+::",
"5ez&882a$ook33o%66:6#3. 44&+O&9:",
"8t$;w54es>>9-3w.f-68k$ 4z298<$&+",
":9oX.  58::6-35 @@68o% 42&:>$1O&",
"&&&a1;O+-f0gN6--115Xt99:-f0gi81;",
"++2z$o2&#-0gh63#%Xw%t>9j@,0gn:;X",
"98%%stwX*7,,681%.5rrk<*sy0bbyBe.",
"tso$>9X%a23c97XwwX>><o2+ug--yB%5",
"4XVx6j=c<1oo5Xt>>9=#+21$:6*rjj&O",
" wugij@#$%%%.w>::jf=*O%o>:++99+&"
};
